<svg xmlns="http://www.w3.org/2000/svg" width="920" height="520" viewBox="0 0 920 520" role="img" aria-label="GRPO training loss curve">
<rect width="100%" height="100%" fill="#ffffff"/>
<text x="460" y="28" text-anchor="middle" font-family="Arial, sans-serif" font-size="20" font-weight="700" fill="#111827">GRPO Training Loss</text>
<line x1="82" y1="444.00" x2="886" y2="444.00" stroke="#e5e7eb" stroke-width="1"/>
<text x="72" y="448.00" text-anchor="end" font-family="Arial, sans-serif" font-size="12" fill="#374151">-0.68</text>
<line x1="82" y1="345.00" x2="886" y2="345.00" stroke="#e5e7eb" stroke-width="1"/>
<text x="72" y="349.00" text-anchor="end" font-family="Arial, sans-serif" font-size="12" fill="#374151">-0.34</text>
<line x1="82" y1="246.00" x2="886" y2="246.00" stroke="#e5e7eb" stroke-width="1"/>
<text x="72" y="250.00" text-anchor="end" font-family="Arial, sans-serif" font-size="12" fill="#374151">0.01</text>
<line x1="82" y1="147.00" x2="886" y2="147.00" stroke="#e5e7eb" stroke-width="1"/>
<text x="72" y="151.00" text-anchor="end" font-family="Arial, sans-serif" font-size="12" fill="#374151">0.35</text>
<line x1="82" y1="48.00" x2="886" y2="48.00" stroke="#e5e7eb" stroke-width="1"/>
<text x="72" y="52.00" text-anchor="end" font-family="Arial, sans-serif" font-size="12" fill="#374151">0.69</text>
<line x1="82.00" y1="48" x2="82.00" y2="444" stroke="#f3f4f6" stroke-width="1"/>
<text x="82.00" y="466" text-anchor="middle" font-family="Arial, sans-serif" font-size="12" fill="#374151">1</text>
<line x1="283.00" y1="48" x2="283.00" y2="444" stroke="#f3f4f6" stroke-width="1"/>
<text x="283.00" y="466" text-anchor="middle" font-family="Arial, sans-serif" font-size="12" fill="#374151">63</text>
<line x1="484.00" y1="48" x2="484.00" y2="444" stroke="#f3f4f6" stroke-width="1"/>
<text x="484.00" y="466" text-anchor="middle" font-family="Arial, sans-serif" font-size="12" fill="#374151">126</text>
<line x1="685.00" y1="48" x2="685.00" y2="444" stroke="#f3f4f6" stroke-width="1"/>
<text x="685.00" y="466" text-anchor="middle" font-family="Arial, sans-serif" font-size="12" fill="#374151">188</text>
<line x1="886.00" y1="48" x2="886.00" y2="444" stroke="#f3f4f6" stroke-width="1"/>
<text x="886.00" y="466" text-anchor="middle" font-family="Arial, sans-serif" font-size="12" fill="#374151">250</text>
<line x1="82" y1="248.24" x2="886" y2="248.24" stroke="#111827" stroke-width="1" opacity="0.35"/>
<polyline points="82.00,248.24 85.23,248.24 88.46,248.24 91.69,248.21 94.92,248.24 98.14,248.24 101.37,141.74 104.60,248.58 107.83,248.24 111.06,248.24 114.29,248.24 117.52,248.24 120.75,153.58 123.98,231.52 127.20,325.63 130.43,248.56 133.66,248.24 136.89,320.06 140.12,248.24 143.35,248.47 146.58,120.08 149.81,248.04 153.04,233.19 156.27,230.28 159.49,158.17 162.72,405.68 165.95,279.66 169.18,235.33 172.41,170.59 175.64,364.90 178.87,216.62 182.10,225.92 185.33,152.97 188.55,252.08 191.78,267.09 195.01,230.71 198.24,96.17 201.47,133.91 204.70,191.64 207.93,231.08 211.16,152.60 214.39,320.20 217.61,287.77 220.84,155.22 224.07,216.62 227.30,244.57 230.53,247.08 233.76,99.69 236.99,230.57 240.22,99.52 243.45,190.34 246.67,249.80 249.90,200.53 253.13,246.94 256.36,294.90 259.59,280.09 262.82,224.70 266.05,223.92 269.28,100.18 272.51,247.08 275.73,250.78 278.96,251.47 282.19,242.87 285.42,245.49 288.65,218.99 291.88,290.25 295.11,282.63 298.34,225.77 301.57,222.28 304.80,248.04 308.02,168.28 311.25,200.10 314.48,230.33 317.71,247.57 320.94,176.10 324.17,218.12 327.40,266.26 330.63,253.41 333.86,156.75 337.08,89.07 340.31,300.88 343.54,158.60 346.77,255.08 350.00,240.04 353.23,269.81 356.46,249.08 359.69,130.59 362.92,279.57 366.14,240.53 369.37,231.20 372.60,248.96 375.83,238.77 379.06,257.54 382.29,202.64 385.52,233.37 388.75,261.09 391.98,180.69 395.20,264.01 398.43,288.93 401.66,214.94 404.89,178.33 408.12,246.39 411.35,246.97 414.58,209.14 417.81,246.01 421.04,178.09 424.27,238.71 427.49,180.09 430.72,251.13 433.95,240.15 437.18,298.60 440.41,254.16 443.64,247.80 446.87,226.96 450.10,272.24 453.33,223.58 456.55,272.81 459.78,226.90 463.01,136.08 466.24,227.36 469.47,201.05 472.70,258.40 475.93,244.43 479.16,235.73 482.39,247.29 485.61,241.65 488.84,165.48 492.07,246.85 495.30,148.41 498.53,193.83 501.76,260.86 504.99,247.05 508.22,209.17 511.45,241.05 514.67,247.03 517.90,255.75 521.13,306.14 524.36,256.84 527.59,247.75 530.82,271.31 534.05,247.92 537.28,260.11 540.51,273.07 543.73,271.17 546.96,276.65 550.19,247.83 553.42,245.90 556.65,230.57 559.88,282.00 563.11,160.45 566.34,88.63 569.57,248.56 572.80,253.90 576.02,264.47 579.25,320.89 582.48,263.02 585.71,247.75 588.94,224.44 592.17,251.53 595.40,227.71 598.63,305.85 601.86,239.89 605.08,367.24 608.31,247.14 611.54,270.18 614.77,389.45 618.00,253.09 621.23,222.48 624.46,239.98 627.69,148.99 630.92,247.40 634.14,226.35 637.37,144.68 640.60,183.29 643.83,201.25 647.06,247.60 650.29,241.25 653.52,204.72 656.75,243.96 659.98,231.75 663.20,219.82 666.43,239.57 669.66,247.20 672.89,240.64 676.12,248.93 679.35,272.61 682.58,241.39 685.81,213.21 689.04,86.32 692.27,213.96 695.49,141.74 698.72,247.66 701.95,254.33 705.18,247.92 708.41,247.54 711.64,248.04 714.87,200.19 718.10,254.94 721.33,376.68 724.55,185.55 727.78,274.49 731.01,348.70 734.24,214.16 737.47,247.46 740.70,256.03 743.93,163.34 747.16,313.39 750.39,240.04 753.61,261.18 756.84,218.90 760.07,150.05 763.30,250.75 766.53,247.80 769.76,247.60 772.99,277.69 776.22,248.82 779.45,206.22 782.67,250.46 785.90,149.48 789.13,192.45 792.36,247.69 795.59,253.87 798.82,240.41 802.05,209.20 805.28,273.36 808.51,247.43 811.73,268.25 814.96,248.18 818.19,249.45 821.42,263.63 824.65,231.03 827.88,245.75 831.11,227.01 834.34,163.92 837.57,264.32 840.80,225.68 844.02,247.72 847.25,234.29 850.48,259.88 853.71,249.97 856.94,231.55 860.17,286.93 863.40,126.84 866.63,247.46 869.86,93.98 873.08,248.56 876.31,245.15 879.54,237.44 882.77,246.97 886.00,245.41" fill="none" stroke="#93c5fd" stroke-width="2" opacity="0.55"/>
<polyline points="82.00,248.24 85.23,248.24 88.46,248.24 91.69,248.23 94.92,248.23 98.14,248.23 101.37,233.02 104.60,234.97 107.83,236.44 111.06,237.62 114.29,237.62 117.52,237.62 120.75,228.15 123.98,226.48 127.20,234.22 130.43,234.26 133.66,244.91 136.89,252.05 140.12,252.05 143.35,252.08 146.58,239.26 149.81,239.24 153.04,247.20 156.27,247.08 159.49,230.33 162.72,246.04 165.95,249.19 169.18,240.71 172.41,232.95 175.64,244.59 178.87,254.24 182.10,252.03 185.33,244.01 188.55,246.19 191.78,257.08 195.01,239.59 198.24,221.24 201.47,211.10 204.70,213.20 207.93,199.82 211.16,193.42 214.39,202.85 217.61,216.33 220.84,206.64 224.07,201.59 227.30,202.98 230.53,218.07 233.76,214.65 236.99,218.54 240.22,205.38 243.45,209.16 246.67,202.12 249.90,193.39 253.13,202.57 256.36,210.39 259.59,213.95 262.82,211.71 266.05,224.13 269.28,211.09 272.51,225.85 275.73,231.89 278.96,232.06 282.19,236.29 285.42,236.15 288.65,228.56 291.88,229.57 295.11,235.37 298.34,235.55 301.57,247.76 304.80,247.86 308.02,239.61 311.25,234.47 314.48,233.22 317.71,233.42 320.94,229.14 324.17,221.92 327.40,220.28 330.63,223.05 333.86,216.50 337.08,200.60 340.31,213.86 343.54,209.71 346.77,212.18 350.00,211.43 353.23,220.80 356.46,223.90 359.69,210.33 362.92,212.95 366.14,221.32 369.37,235.54 372.60,230.35 375.83,238.36 379.06,238.61 382.29,234.87 385.52,231.22 388.75,232.42 391.98,237.43 395.20,235.88 398.43,240.72 401.66,239.09 404.89,232.03 408.12,232.79 411.35,231.73 414.58,232.38 417.81,233.65 421.04,225.35 424.27,231.15 427.49,222.76 430.72,218.98 433.95,221.50 437.18,233.53 440.41,234.30 443.64,234.39 446.87,236.17 450.10,238.79 453.33,243.34 456.55,246.75 459.78,251.43 463.01,239.93 466.24,238.65 469.47,228.89 472.70,229.32 475.93,228.98 479.16,229.86 482.39,227.36 485.61,229.17 488.84,218.44 492.07,220.43 495.30,221.67 498.53,218.31 501.76,224.29 504.99,223.16 508.22,219.63 511.45,220.16 514.67,220.14 517.90,221.55 521.13,235.61 524.36,236.61 527.59,246.55 530.82,254.29 534.05,253.00 537.28,254.31 540.51,260.70 543.73,263.71 546.96,266.67 550.19,265.88 553.42,259.86 556.65,257.23 559.88,260.65 563.11,249.57 566.34,233.64 569.57,232.48 572.80,230.57 576.02,229.90 579.25,234.32 582.48,235.84 585.71,236.02 588.94,235.41 592.17,232.36 595.40,239.09 598.63,260.81 601.86,259.94 605.08,271.28 608.31,269.55 611.54,264.48 614.77,277.12 618.00,277.65 621.23,277.46 624.46,276.30 627.69,268.43 630.92,262.58 634.14,261.23 637.37,238.97 640.60,232.59 643.83,225.70 647.06,211.51 650.29,210.33 653.52,208.55 656.75,208.95 659.98,217.23 663.20,214.47 666.43,215.79 669.66,226.04 672.89,231.78 676.12,236.55 679.35,239.05 682.58,239.06 685.81,239.91 689.04,224.15 692.27,222.37 695.49,214.56 698.72,215.37 701.95,216.08 705.18,216.81 708.41,216.67 711.64,214.21 714.87,210.09 718.10,214.26 721.33,243.30 724.55,240.46 727.78,253.73 731.01,263.84 734.24,259.82 737.47,259.77 740.70,260.62 743.93,252.15 747.16,263.47 750.39,261.98 753.61,250.43 756.84,253.77 760.07,241.32 763.30,231.53 766.53,234.89 769.76,234.91 772.99,237.07 776.22,245.62 779.45,234.91 782.67,235.95 785.90,224.78 789.13,222.13 792.36,231.90 795.59,232.21 798.82,231.47 802.05,227.63 805.28,227.20 808.51,227.06 811.73,233.26 814.96,233.03 818.19,243.03 821.42,250.15 824.65,248.48 827.88,247.67 831.11,246.33 834.34,241.80 837.57,240.90 840.80,238.72 844.02,236.67 847.25,235.28 850.48,236.32 853.71,234.96 856.94,235.01 860.17,239.13 863.40,229.11 866.63,237.46 869.86,220.43 873.08,222.72 876.31,222.46 879.54,222.77 882.77,221.48 886.00,221.03" fill="none" stroke="#2563eb" stroke-width="3"/>
<line x1="82" y1="48" x2="82" y2="444" stroke="#111827" stroke-width="1.2"/>
<line x1="82" y1="444" x2="886" y2="444" stroke="#111827" stroke-width="1.2"/>
<text x="460.0" y="496" text-anchor="middle" font-family="Arial, sans-serif" font-size="14" fill="#111827">X-axis: GRPO optimizer step</text>
<text x="22" y="260.0" transform="rotate(-90 22 260.0)" text-anchor="middle" font-family="Arial, sans-serif" font-size="14" fill="#111827">Y-axis: TRL GRPO loss</text>
<rect x="642" y="58" width="220" height="52" rx="8" fill="#ffffff" stroke="#d1d5db"/>
<line x1="660" y1="78" x2="700" y2="78" stroke="#93c5fd" stroke-width="3" opacity="0.55"/><text x="710" y="82" font-family="Arial, sans-serif" font-size="12" fill="#111827">raw loss</text>
<line x1="660" y1="96" x2="700" y2="96" stroke="#2563eb" stroke-width="3"/><text x="710" y="100" font-family="Arial, sans-serif" font-size="12" fill="#111827">10-step moving average</text>
</svg>