<svg xmlns="http://www.w3.org/2000/svg" width="1200" height="720" viewBox="0 0 1200 720">
<defs><marker id="arrow" markerWidth="12" markerHeight="12" refX="10" refY="6" orient="auto" markerUnits="strokeWidth"><path d="M2,2 L10,6 L2,10 Z" fill="#475569"/></marker></defs>
<rect width="100%" height="100%" fill="#FFFFFF"/>
<text x="600" y="54" text-anchor="middle" font-size="34" font-weight="800" fill="#0F172A">LedgerShield Runtime Architecture</text>
<rect x="45" y="120" width="230" height="150" rx="22" fill="#F8FAFC" stroke="#334155" stroke-width="3"/>
<text x="160" y="158" text-anchor="middle" font-size="24" font-weight="700" fill="#0F172A">Agent / Client</text>
<text x="160" y="195" text-anchor="middle" font-size="18" fill="#475569">calls OpenEnv</text>
<text x="160" y="218" text-anchor="middle" font-size="18" fill="#475569">actions</text>
<rect x="345" y="120" width="230" height="150" rx="22" fill="#EEF2FF" stroke="#4F46E5" stroke-width="3"/>
<text x="460" y="158" text-anchor="middle" font-size="24" font-weight="700" fill="#0F172A">FastAPI API</text>
<text x="460" y="195" text-anchor="middle" font-size="18" fill="#475569">/reset, /step,</text>
<text x="460" y="218" text-anchor="middle" font-size="18" fill="#475569">/state</text>
<rect x="645" y="120" width="230" height="150" rx="22" fill="#ECFDF5" stroke="#059669" stroke-width="3"/>
<text x="760" y="158" text-anchor="middle" font-size="24" font-weight="700" fill="#0F172A">Environment</text>
<text x="760" y="185" text-anchor="middle" font-size="24" font-weight="700" fill="#0F172A">Loop</text>
<text x="760" y="222" text-anchor="middle" font-size="18" fill="#475569">budget, steps,</text>
<text x="760" y="245" text-anchor="middle" font-size="18" fill="#475569">observations</text>
<rect x="945" y="120" width="210" height="150" rx="22" fill="#FFFBEB" stroke="#D97706" stroke-width="3"/>
<text x="1050" y="158" text-anchor="middle" font-size="24" font-weight="700" fill="#0F172A">Reports</text>
<text x="1050" y="195" text-anchor="middle" font-size="18" fill="#475569">leaderboard +</text>
<text x="1050" y="218" text-anchor="middle" font-size="18" fill="#475569">summaries</text>
<line x1="275" y1="195" x2="345" y2="195" stroke="#475569" stroke-width="4" marker-end="url(#arrow)"/>
<line x1="575" y1="195" x2="645" y2="195" stroke="#475569" stroke-width="4" marker-end="url(#arrow)"/>
<line x1="875" y1="195" x2="945" y2="195" stroke="#475569" stroke-width="4" marker-end="url(#arrow)"/>
<rect x="120" y="410" width="190" height="150" rx="22" fill="#F1F5F9" stroke="#334155" stroke-width="3"/>
<text x="215" y="448" text-anchor="middle" font-size="24" font-weight="700" fill="#0F172A">Tools</text>
<text x="215" y="485" text-anchor="middle" font-size="18" fill="#475569">OCR, policy,</text>
<text x="215" y="508" text-anchor="middle" font-size="18" fill="#475569">ledger, email</text>
<rect x="360" y="410" width="190" height="150" rx="22" fill="#F1F5F9" stroke="#334155" stroke-width="3"/>
<text x="455" y="448" text-anchor="middle" font-size="24" font-weight="700" fill="#0F172A">World State</text>
<text x="455" y="485" text-anchor="middle" font-size="18" fill="#475569">hidden risk +</text>
<text x="455" y="508" text-anchor="middle" font-size="18" fill="#475569">artifacts</text>
<rect x="600" y="410" width="190" height="150" rx="22" fill="#F1F5F9" stroke="#334155" stroke-width="3"/>
<text x="695" y="448" text-anchor="middle" font-size="24" font-weight="700" fill="#0F172A">Grader</text>
<text x="695" y="485" text-anchor="middle" font-size="18" fill="#475569">rubric +</text>
<text x="695" y="508" text-anchor="middle" font-size="18" fill="#475569">trajectory</text>
<rect x="840" y="410" width="190" height="150" rx="22" fill="#F1F5F9" stroke="#334155" stroke-width="3"/>
<text x="935" y="448" text-anchor="middle" font-size="24" font-weight="700" fill="#0F172A">Memory</text>
<text x="935" y="485" text-anchor="middle" font-size="18" fill="#475569">loss surface +</text>
<text x="935" y="508" text-anchor="middle" font-size="18" fill="#475569">authority</text>
<line x1="740" y1="270" x2="215" y2="410" stroke="#475569" stroke-width="4" marker-end="url(#arrow)"/>
<line x1="760" y1="270" x2="455" y2="410" stroke="#475569" stroke-width="4" marker-end="url(#arrow)"/>
<line x1="780" y1="270" x2="695" y2="410" stroke="#475569" stroke-width="4" marker-end="url(#arrow)"/>
<line x1="800" y1="270" x2="935" y2="410" stroke="#475569" stroke-width="4" marker-end="url(#arrow)"/>
</svg>