<svg xmlns="http://www.w3.org/2000/svg" width="1200" height="720" viewBox="0 0 1200 720">
<defs><marker id="arrow" markerWidth="12" markerHeight="12" refX="10" refY="6" orient="auto" markerUnits="strokeWidth"><path d="M2,2 L10,6 L2,10 Z" fill="#475569"/></marker></defs>
<rect width="100%" height="100%" fill="#FFFFFF"/>
<text x="600" y="54" text-anchor="middle" font-size="34" font-weight="800" fill="#0F172A">ControlBench Adds Long-Horizon Institutional Memory</text>
<rect x="60" y="120" width="260" height="130" rx="22" fill="#ECFDF5" stroke="#059669" stroke-width="3"/>
<text x="190" y="158" text-anchor="middle" font-size="24" font-weight="700" fill="#0F172A">AP-week memory</text>
<text x="190" y="195" text-anchor="middle" font-size="18" fill="#475569">queue, vendors,</text>
<text x="190" y="218" text-anchor="middle" font-size="18" fill="#475569">callbacks</text>
<rect x="470" y="120" width="260" height="130" rx="22" fill="#FEF2F2" stroke="#DC2626" stroke-width="3"/>
<text x="600" y="158" text-anchor="middle" font-size="24" font-weight="700" fill="#0F172A">Loss surface</text>
<text x="600" y="195" text-anchor="middle" font-size="18" fill="#475569">fraud + false</text>
<text x="600" y="218" text-anchor="middle" font-size="18" fill="#475569">positives + burn</text>
<rect x="880" y="120" width="260" height="130" rx="22" fill="#EFF6FF" stroke="#2563EB" stroke-width="3"/>
<text x="1010" y="158" text-anchor="middle" font-size="24" font-weight="700" fill="#0F172A">Authority gate</text>
<text x="1010" y="195" text-anchor="middle" font-size="18" fill="#475569">full / restricted</text>
<text x="1010" y="218" text-anchor="middle" font-size="18" fill="#475569">/ review / locked</text>
<rect x="265" y="430" width="280" height="130" rx="22" fill="#F5F3FF" stroke="#7C3AED" stroke-width="3"/>
<text x="405" y="468" text-anchor="middle" font-size="24" font-weight="700" fill="#0F172A">Sleeper</text>
<text x="405" y="495" text-anchor="middle" font-size="24" font-weight="700" fill="#0F172A">vendors</text>
<text x="405" y="532" text-anchor="middle" font-size="18" fill="#475569">trust builds, then</text>
<text x="405" y="555" text-anchor="middle" font-size="18" fill="#475569">risk activates</text>
<rect x="670" y="430" width="280" height="130" rx="22" fill="#FFFBEB" stroke="#D97706" stroke-width="3"/>
<text x="810" y="468" text-anchor="middle" font-size="24" font-weight="700" fill="#0F172A">Deployability</text>
<text x="810" y="505" text-anchor="middle" font-size="18" fill="#475569">safe to automate</text>
<text x="810" y="528" text-anchor="middle" font-size="18" fill="#475569">or only advise?</text>
<line x1="320" y1="185" x2="470" y2="185" stroke="#475569" stroke-width="4" marker-end="url(#arrow)"/>
<line x1="730" y1="185" x2="880" y2="185" stroke="#475569" stroke-width="4" marker-end="url(#arrow)"/>
<line x1="600" y1="250" x2="405" y2="430" stroke="#475569" stroke-width="4" marker-end="url(#arrow)"/>
<line x1="730" y1="250" x2="810" y2="430" stroke="#475569" stroke-width="4" marker-end="url(#arrow)"/>
<line x1="545" y1="495" x2="670" y2="495" stroke="#475569" stroke-width="4" marker-end="url(#arrow)"/>
</svg>