<svg xmlns="http://www.w3.org/2000/svg" width="1200" height="720" viewBox="0 0 1200 720">
<defs><marker id="arrow" markerWidth="12" markerHeight="12" refX="10" refY="6" orient="auto" markerUnits="strokeWidth"><path d="M2,2 L10,6 L2,10 Z" fill="#475569"/></marker></defs>
<rect width="100%" height="100%" fill="#FFFFFF"/>
<text x="600" y="54" text-anchor="middle" font-size="34" font-weight="800" fill="#0F172A">OpenEnv-Compatible API Surface</text>
<rect x="80" y="160" width="300" height="120" rx="22" fill="#F8FAFC" stroke="#2563EB" stroke-width="3"/>
<text x="230" y="198" text-anchor="middle" font-size="24" font-weight="700" fill="#0F172A">/reset</text>
<text x="230" y="235" text-anchor="middle" font-size="18" fill="#475569">start a case</text>
<rect x="440" y="160" width="300" height="120" rx="22" fill="#F8FAFC" stroke="#2563EB" stroke-width="3"/>
<text x="590" y="198" text-anchor="middle" font-size="24" font-weight="700" fill="#0F172A">/step</text>
<text x="590" y="235" text-anchor="middle" font-size="18" fill="#475569">take an action</text>
<rect x="800" y="160" width="300" height="120" rx="22" fill="#F8FAFC" stroke="#2563EB" stroke-width="3"/>
<text x="950" y="198" text-anchor="middle" font-size="24" font-weight="700" fill="#0F172A">/state</text>
<text x="950" y="235" text-anchor="middle" font-size="18" fill="#475569">see public state</text>
<rect x="80" y="340" width="300" height="120" rx="22" fill="#F8FAFC" stroke="#2563EB" stroke-width="3"/>
<text x="230" y="378" text-anchor="middle" font-size="24" font-weight="700" fill="#0F172A">/certify</text>
<text x="230" y="415" text-anchor="middle" font-size="18" fill="#475569">product-facing</text>
<text x="230" y="438" text-anchor="middle" font-size="18" fill="#475569">report</text>
<rect x="440" y="340" width="300" height="120" rx="22" fill="#F8FAFC" stroke="#2563EB" stroke-width="3"/>
<text x="590" y="378" text-anchor="middle" font-size="24" font-weight="700" fill="#0F172A">/controlbench-summary</text>
<text x="590" y="415" text-anchor="middle" font-size="18" fill="#475569">institutional result</text>
<rect x="800" y="340" width="300" height="120" rx="22" fill="#F8FAFC" stroke="#2563EB" stroke-width="3"/>
<text x="950" y="378" text-anchor="middle" font-size="24" font-weight="700" fill="#0F172A">/visualization</text>
<text x="950" y="415" text-anchor="middle" font-size="18" fill="#475569">graph-ready payload</text>
</svg>